HIERARCHY
ROOT SpineBase
{
  OFFSET 0.000000 0.000000 0.000000
  CHANNELS 6 Xposition Yposition Zposition Zrotation Xrotation Yrotation
  JOINT SpineMid
  {
    OFFSET -0.000000 31.640515 0.000000
    CHANNELS 3 Zrotation Xrotation Yrotation
    JOINT SpineShoulder
    {
      OFFSET -0.081838 23.572673 -0.851536
      CHANNELS 3 Zrotation Xrotation Yrotation
      JOINT Neck
      {
        OFFSET -0.000487 7.823930 -0.643586
        CHANNELS 3 Zrotation Xrotation Yrotation
        JOINT Head
        {
          OFFSET -5.089491 12.877214 2.748301
          CHANNELS 3 Zrotation Xrotation Yrotation
          End Site
          {
            OFFSET 0 0 0
          }
        }
      }
      JOINT ShoulderLeft
      {
        OFFSET -12.705889 -4.912912 8.920001
        CHANNELS 3 Zrotation Xrotation Yrotation
        JOINT ElbowLeft
        {
          OFFSET -1.384122 -27.774312 2.084144
          CHANNELS 3 Zrotation Xrotation Yrotation
          JOINT WristLeft
          {
            OFFSET -0.887500 -21.956680 -6.244752
            CHANNELS 3 Zrotation Xrotation Yrotation
            JOINT HandLeft
            {
              OFFSET 1.777284 -5.492859 -1.110033
              CHANNELS 3 Zrotation Xrotation Yrotation
              JOINT HandTipLeft
              {
                OFFSET -0.064883 -7.219428 -1.718841
                CHANNELS 3 Zrotation Xrotation Yrotation
                End Site
                {
                  OFFSET 0 0 0
                }
              }
              JOINT ThumbLeft
              {
                OFFSET 2.498528 0.985464 -4.211046
                CHANNELS 3 Zrotation Xrotation Yrotation
                End Site
                {
                  OFFSET 0 0 0
                }
              }
            }
          }
        }
      }
      JOINT ShoulderRight
      {
        OFFSET 11.669478 -2.651804 -9.671017
        CHANNELS 3 Zrotation Xrotation Yrotation
        JOINT ElbowRight
        {
          OFFSET 7.249840 -22.006429 -9.058244
          CHANNELS 3 Zrotation Xrotation Yrotation
          JOINT WristRight
          {
            OFFSET -1.003664 -20.766598 -11.309076
            CHANNELS 3 Zrotation Xrotation Yrotation
            JOINT HandRight
            {
              OFFSET -2.319612 -7.887344 -2.905981
              CHANNELS 3 Zrotation Xrotation Yrotation
              JOINT HandTipRight
              {
                OFFSET -1.242226 -7.530639 -1.973799
                CHANNELS 3 Zrotation Xrotation Yrotation
                End Site
                {
                  OFFSET 0 0 0
                }
              }
              JOINT ThumbRight
              {
                OFFSET -2.564967 0.608863 -1.844056
                CHANNELS 3 Zrotation Xrotation Yrotation
                End Site
                {
                  OFFSET 0 0 0
                }
              }
            }
          }
        }
      }
    }
  }
  JOINT HipLeft
  {
    OFFSET -6.199498 0.591957 0.338259
    CHANNELS 3 Zrotation Xrotation Yrotation
    JOINT KneeLeft
    {
      OFFSET 4.282892 -36.934416 -1.677619
      CHANNELS 3 Zrotation Xrotation Yrotation
      JOINT AnkleLeft
      {
        OFFSET 8.681105 -38.723823 13.617079
        CHANNELS 3 Zrotation Xrotation Yrotation
        JOINT FootLeft
        {
          OFFSET -1.190655 -8.272360 -4.805974
          CHANNELS 3 Zrotation Xrotation Yrotation
          End Site
          {
            OFFSET 0 0 0
          }
        }
      }
    }
  }
  JOINT HipRight
  {
    OFFSET 6.364473 1.446625 -7.293507
    CHANNELS 3 Zrotation Xrotation Yrotation
    JOINT KneeRight
    {
      OFFSET 13.612575 -31.012279 -5.431180
      CHANNELS 3 Zrotation Xrotation Yrotation
      JOINT AnkleRight
      {
        OFFSET 9.170134 -37.848019 6.798037
        CHANNELS 3 Zrotation Xrotation Yrotation
        JOINT FootRight
        {
          OFFSET -1.798297 -8.328921 -4.195104
          CHANNELS 3 Zrotation Xrotation Yrotation
          End Site
          {
            OFFSET 0 0 0
          }
        }
      }
    }
  }
}
MOTION
Frames: 10
Frame Time: 0.033333
-13.678973 85.159395 333.771183 2.577733 4.695676 27.403639 1.353637 0.195779 -27.331504 0.186067 0.475554 0.160541 -4.818050 2.519984 2.963083 0.000000 0.000000 0.000000 -89.673298 26.078105 8.767036 -7.964438 -9.022519 26.455945 -22.806879 -2.798326 -0.959979 26.626591 5.313737 -0.155044 0.000000 0.000000 0.000000 0.000000 0.000000 0.000000 -31.072340 62.986548 42.737852 -7.998205 8.454089 -23.086675 -0.804223 3.221938 -20.038071 7.349754 10.578664 9.496682 0.000000 0.000000 0.000000 0.000000 0.000000 0.000000 -7.773205 -10.596092 -29.011337 0.257224 13.281181 2.386795 -13.083275 0.698641 3.957168 0.000000 0.000000 0.000000 -11.056468 -3.668971 -28.681604 13.408405 2.839136 1.212353 5.252744 8.656845 -10.372175 0.000000 0.000000 0.000000
-13.438239 84.676355 333.681646 1.884443 5.321514 27.292874 1.372934 0.077942 -27.205880 0.258911 0.478497 0.142986 -4.813938 1.710509 2.999708 0.000000 0.000000 0.000000 -69.303914 25.936581 5.166863 -11.991398 -6.422052 20.725640 -27.566997 -3.492122 -3.194842 28.988440 3.084290 -1.825620 0.000000 0.000000 0.000000 0.000000 0.000000 0.000000 -28.446361 48.196115 34.484683 -0.582913 4.749887 -17.367400 1.720909 4.734148 -16.176130 3.796196 12.413049 6.733400 0.000000 0.000000 0.000000 0.000000 0.000000 0.000000 -7.654714 -11.794143 -29.036789 0.178118 13.738338 2.425902 -13.069261 1.279198 3.974335 0.000000 0.000000 0.000000 -11.006794 -4.759561 -28.823578 13.606986 3.068747 1.249040 8.673309 3.938580 -11.043292 0.000000 0.000000 0.000000
-13.309618 84.523309 333.462808 1.484176 5.747260 26.861804 1.232745 -0.015056 -26.772000 0.345235 0.421946 0.135538 -5.215759 1.450358 3.164535 0.000000 0.000000 0.000000 -52.254329 21.068625 0.909451 -13.704262 -4.507993 16.740595 -30.754197 -5.017993 -5.374158 31.486499 3.282669 -1.875850 0.000000 0.000000 0.000000 0.000000 0.000000 0.000000 -24.620795 35.865722 26.573803 5.820414 1.598467 -14.005735 3.812945 6.562500 -13.233782 1.436226 12.030679 4.655902 0.000000 0.000000 0.000000 0.000000 0.000000 0.000000 -7.555192 -12.879289 -28.732462 -0.012050 14.234781 2.485634 -12.886303 1.289843 3.932623 0.000000 0.000000 0.000000 -11.088492 -5.590312 -28.610370 13.699787 3.355136 1.281157 9.786717 3.536506 -11.522281 0.000000 0.000000 0.000000
-13.293816 84.813543 333.182430 1.499210 5.769102 26.153178 0.965224 -0.215655 -26.071592 0.421326 0.226829 0.144961 -6.193795 2.678075 3.706760 0.000000 0.000000 0.000000 -39.510993 13.681803 -1.765865 -14.348450 -4.875646 13.358306 -33.255343 -5.448964 -5.095187 34.774346 1.709687 -3.222434 0.000000 0.000000 0.000000 0.000000 0.000000 0.000000 -18.834624 26.349592 18.795141 11.491220 0.852061 -12.450057 6.190946 8.914675 -11.633054 1.378119 7.894628 4.320423 0.000000 0.000000 0.000000 0.000000 0.000000 0.000000 -7.491195 -13.483257 -28.105114 -0.257807 14.687036 2.550362 -12.623449 1.382759 3.848117 0.000000 0.000000 0.000000 -11.320370 -5.867345 -28.024789 13.705761 3.602741 1.282926 7.808247 7.685306 -11.469099 0.000000 0.000000 0.000000
-13.342733 85.499625 332.885304 2.034105 5.656485 25.922414 0.711521 -0.239747 -25.865848 0.499487 0.218154 0.169420 -7.341237 1.396447 3.166306 0.000000 0.000000 0.000000 -30.621995 5.511970 -3.205906 -15.477864 -8.342538 10.419690 -32.238532 -6.126940 -5.619278 36.589482 5.166327 -2.880747 0.000000 0.000000 0.000000 0.000000 0.000000 0.000000 -10.857067 18.602835 11.039700 14.320045 1.824581 -12.131752 10.643296 10.701523 -11.545983 2.348995 -0.552515 6.987038 0.000000 0.000000 0.000000 0.000000 0.000000 0.000000 -7.941200 -13.474392 -27.937372 -0.353852 14.908904 2.576978 -12.275655 1.491061 3.704084 0.000000 0.000000 0.000000 -12.214012 -5.897244 -28.027376 13.867398 4.077093 1.327800 8.384800 9.273993 -12.179511 0.000000 0.000000 0.000000
-13.451351 85.460282 332.707361 3.677579 5.842005 25.767000 0.193547 -0.347773 -25.765993 0.493886 0.118607 0.226759 -9.497055 -1.412544 1.859718 0.000000 0.000000 0.000000 -25.714440 -2.420382 -3.849418 -13.930184 -12.286731 8.378241 -33.261784 -7.020844 -6.249709 31.689814 1.135362 -2.948161 0.000000 0.000000 0.000000 0.000000 0.000000 0.000000 -0.664143 13.909834 3.769026 14.648506 0.714305 -12.571119 15.984444 7.586408 -9.911930 -1.556883 -0.751512 7.788787 0.000000 0.000000 0.000000 0.000000 0.000000 0.000000 -9.464473 -13.226979 -27.905993 -0.457309 14.977636 2.591347 -12.005117 1.714955 3.592675 0.000000 0.000000 0.000000 -13.565503 -5.683121 -28.066663 13.436378 4.351116 1.447744 11.206022 5.848673 -12.799877 0.000000 0.000000 0.000000
-13.560265 85.320633 332.534369 4.205505 5.482615 25.302979 -0.218738 -0.393459 -25.321696 0.417737 0.073223 0.226181 -6.097175 -1.737902 0.960492 0.000000 0.000000 0.000000 -24.598862 -11.565753 -4.615789 -9.057910 -16.538785 7.229683 -35.458303 -6.214809 -4.168406 30.636697 1.283141 -1.924350 0.000000 0.000000 0.000000 0.000000 0.000000 0.000000 7.880180 9.086057 -1.372553 19.084002 1.627069 -14.985481 21.310127 1.479143 -4.585086 -7.269745 2.801116 6.962186 0.000000 0.000000 0.000000 0.000000 0.000000 0.000000 -9.658408 -13.129865 -27.452582 -0.583218 15.137641 2.625595 -11.887750 2.020326 3.535001 0.000000 0.000000 0.000000 -13.731686 -5.454288 -27.637227 13.159534 4.499481 1.517049 8.492761 11.644040 -12.799588 0.000000 0.000000 0.000000
-13.701589 85.207599 332.375790 4.633669 4.933299 24.886061 -0.126784 -0.485557 -24.876318 0.328086 0.058134 0.240839 -4.383518 -2.021498 0.241960 0.000000 0.000000 0.000000 -23.798676 -20.906483 -5.261201 -6.928536 -18.809796 6.759549 -36.639342 -2.289400 1.791715 31.110880 -1.736891 -2.986293 0.000000 0.000000 0.000000 0.000000 0.000000 0.000000 16.267609 4.445748 -5.963038 22.105191 3.211942 -18.110201 23.227171 0.036664 -0.374494 -8.833821 3.241588 7.917881 0.000000 0.000000 0.000000 0.000000 0.000000 0.000000 -9.624758 -12.823437 -26.988876 -0.707181 15.197704 2.653107 -12.107533 2.779942 3.618880 0.000000 0.000000 0.000000 -13.683766 -5.037865 -27.174406 12.912684 4.530130 1.569403 8.532362 11.956453 -12.868790 0.000000 0.000000 0.000000
-13.874141 85.067938 332.265351 4.867156 4.228762 24.230436 0.064071 -0.471328 -24.185145 0.190716 0.072900 0.242717 -2.211512 -1.667439 -0.255821 0.000000 0.000000 0.000000 -23.575534 -29.845851 -5.957771 -7.661331 -24.270808 6.809333 -39.275821 1.540821 9.062362 32.230050 -7.848712 -5.769914 0.000000 0.000000 0.000000 0.000000 0.000000 0.000000 24.080459 1.130199 -9.556217 25.175901 3.749200 -21.751017 22.948035 0.540819 2.916391 -9.861810 2.378422 10.065471 0.000000 0.000000 0.000000 0.000000 0.000000 0.000000 -9.247371 -12.496240 -26.248613 -0.871743 15.275692 2.694479 -12.433832 3.530317 3.739819 0.000000 0.000000 0.000000 -13.326672 -4.521069 -26.388065 12.708227 4.389871 1.588160 3.447093 20.031714 -11.649614 0.000000 0.000000 0.000000
-13.707521 85.121338 332.132103 5.361293 3.614819 22.674101 0.056788 -0.439030 -22.605129 0.140372 0.107485 0.257605 -0.601084 -0.696057 -0.505654 0.000000 0.000000 0.000000 -27.024490 -40.451203 -8.433098 -8.985735 -26.998779 8.781415 -38.417405 1.727690 7.369397 36.580828 1.606543 -4.389487 0.000000 0.000000 0.000000 0.000000 0.000000 0.000000 32.396840 0.822247 -12.924952 27.107767 2.926411 -24.774599 27.799481 0.680907 7.340792 -13.727101 5.065085 9.134244 0.000000 0.000000 0.000000 0.000000 0.000000 0.000000 -9.388568 -12.172686 -24.649397 -0.614933 15.373204 2.667419 -12.861760 4.630920 3.943226 0.000000 0.000000 0.000000 -13.841585 -3.841225 -24.592554 13.321307 4.094574 1.424323 -0.503623 24.765283 -10.058127 0.000000 0.000000 0.000000
